<svg width="22" height="23" viewBox="0 0 22 23" fill="none" xmlns="http://www.w3.org/2000/svg">
<ellipse cx="12.0266" cy="11.5599" rx="9.97333" ry="9.61784" fill="black"/>
<rect x="11.5952" y="20.4384" width="1.05412" height="2.49248" rx="0.527058" fill="black"/>
<rect width="1.01727" height="2.76978" rx="0.508636" transform="matrix(0.000545492 1 -1 0.000487974 14.4678 21.9176)" fill="black"/>
<ellipse cx="12.0268" cy="11.5599" rx="8.99555" ry="8.69305" fill="white"/>
<ellipse cx="7.53682" cy="7.33455" rx="7.53682" ry="7.33455" transform="matrix(0.999999 -0.00168362 0.00188207 0.999998 4.30225 4.00195)" fill="black"/>
<rect width="1.04629" height="4.75742" rx="0.523143" transform="matrix(-0.720212 0.693754 -0.732756 -0.680491 20.6631 19.0836)" fill="black"/>
<rect width="1.07555" height="4.4039" rx="0.537777" transform="matrix(0.999982 0.00607379 -0.00678968 0.999977 11.3696 0)" fill="black"/>
<ellipse cx="11.8798" cy="11.3287" rx="6.6" ry="6.33483" fill="white"/>
<ellipse cx="5.17376" cy="5.01096" rx="5.17376" ry="5.01096" transform="matrix(0.999999 -0.00168362 0.00188207 0.999998 6.74658 6.23572)" fill="black"/>
<rect width="1.04707" height="8.3503" rx="0.523537" transform="matrix(0.729516 0.683964 -0.723504 0.69032 9.16553 13.5444)" fill="black"/>
<path d="M3.50161 4.59773C3.29847 4.39125 3.31005 4.06874 3.52748 3.87738C3.74491 3.68601 4.08585 3.69826 4.28899 3.90473L8.21747 7.89765C8.42061 8.10412 8.40903 8.42663 8.1916 8.61799C7.97417 8.80936 7.63323 8.79711 7.43009 8.59064L3.50161 4.59773Z" fill="black"/>
<rect width="1.01728" height="8.42202" rx="0.508639" transform="matrix(0.01006 0.999949 -0.99996 0.00899935 8.42188 11.0619)" fill="black"/>
<ellipse cx="11.9776" cy="11.2825" rx="4.35111" ry="4.06909" fill="white"/>
<path d="M11.7124 8.24951C11.8411 8.06573 12.0762 8.06999 12.1987 8.24365C12.3355 8.43758 12.4626 8.6433 12.5532 8.84229C12.646 9.04602 12.686 9.21166 12.686 9.33252V11.9185C12.686 12.1944 12.4624 12.4185 12.186 12.4185H11.7144C11.4382 12.4185 11.2144 12.1945 11.2144 11.9185C11.2144 11.1622 11.2143 10.1223 11.2144 9.33252C11.2144 9.22682 11.254 9.0681 11.3501 8.86084C11.4431 8.66021 11.5729 8.44903 11.7124 8.24951Z" fill="black" stroke="black"/>
<path d="M9.77045 12.929L10.8141 11.5488L10.8141 13.514L9.66332 14.9905L9.71366 13.9265L9.77045 12.929Z" fill="black"/>
<path d="M14.3121 13.0151L14.3054 14.7093L13.1015 13.3403L12.9985 11.3449L13.6352 12.0796L14.3121 13.0151Z" fill="black"/>
<path d="M10.7144 11.9113H13.1864V13.343L12.8774 14.1454H11.0637L10.7738 13.5318L10.7144 11.9113Z" fill="black"/>
<ellipse cx="11.9504" cy="9.73983" rx="0.403056" ry="0.472012" fill="white"/>
</svg>
